# xmcd
#
# Track frame offsets: 
#        150
#        27027
#        48977
#        78837
#        102916
#        122781
#        140181
#        150782
#        171888
#        192277
#        206290
#        233347
#        256980
#
# Disc length: 3722 seconds
#
# Revision: 0
# Processed by: cddbd v1.5.2PL0 Copyright (c) Steve Scherf et al.
# Submitted via: ExactAudioCopyFreeDBPlugin 1.0
#
DISCID=9a0e880d
DTITLE=The Rolling Stones - 2009 Remasters Promo
DYEAR=2009
DGENRE=Rock
TTITLE0=Moonlight Mile
TTITLE1=Dancing With Mr.D.
TTITLE2=Time Waits For No One
TTITLE3=Hot Stuff
TTITLE4=Beast Of Burden
TTITLE5=Let Me Go
TTITLE6=Hang Fire
TTITLE7=She Was Hot
TTITLE8=Winning Ugly
TTITLE9=Break The Spell
TTITLE10=Thru And Thru
TTITLE11=Saint Of Me
TTITLE12=Rain Fall Down
EXTD=
EXTT0=
EXTT1=
EXTT2=
EXTT3=
EXTT4=
EXTT5=
EXTT6=
EXTT7=
EXTT8=
EXTT9=
EXTT10=
EXTT11=
EXTT12=
PLAYORDER=
